<svg width="181" height="45" viewBox="0 0 181 45" fill="none" xmlns="http://www.w3.org/2000/svg">
<path d="M22.5397 35.6032L1.27281 23.2666C0.92502 23.0727 0.49994 23.3184 0.49994 23.7192V32.5772C0.49994 33.0815 0.770447 33.5341 1.19553 33.7928L19.1262 44.1896C19.5512 44.4353 20.0923 44.4353 20.5173 44.1896L25.2061 41.474V41.461L31.0026 38.0989V38.1119L35.2921 35.6291C38.8086 33.5859 39.0276 28.5169 35.6399 26.2668C35.5626 26.2151 35.4982 26.1763 35.4209 26.1245L12.3635 12.7406C12.3506 12.7277 12.3249 12.7147 12.312 12.7018C9.60695 11.1113 9.6456 7.18012 12.3635 5.60251L14.4374 4.39989C14.5276 6.21028 15.5194 7.86549 17.1038 8.77068L38.3707 21.0942C38.7185 21.2882 39.1436 21.0425 39.1436 20.6416L39.1436 11.7966C39.1436 11.2923 38.873 10.8397 38.448 10.5811L20.5173 0.184277C20.0923 -0.0614256 19.5512 -0.0614256 19.1262 0.184277L17.0523 1.38689L6.4897 7.50341L4.23549 8.8224C0.718921 10.8656 0.551467 15.9734 4.01651 18.133C4.08092 18.1718 4.1582 18.2235 4.22261 18.2623L27.2928 31.6333C27.3057 31.6463 27.3315 31.6592 27.3444 31.6721C30.0365 33.2626 29.9979 37.1937 27.2928 38.7585L25.2061 39.974C25.103 38.1507 24.1112 36.5084 22.5397 35.6032Z" fill="#268FCA"/>
<path d="M58.2931 17.6959C57.1566 17.6959 56.0922 17.6078 55.0997 17.4317C54.1233 17.2717 53.2589 16.9915 52.5066 16.5914C51.7702 16.1752 51.186 15.6069 50.7538 14.8866C50.3376 14.1503 50.1295 13.2299 50.1295 12.1254C50.1295 12.0934 50.1295 12.0533 50.1295 12.0053C50.1295 11.9413 50.1375 11.8773 50.1535 11.8132H55.1718C55.1557 11.8773 55.1477 11.9413 55.1477 12.0053C55.1477 12.0533 55.1477 12.1014 55.1477 12.1494C55.1477 12.6296 55.2598 12.9978 55.4839 13.2539C55.708 13.51 56.0201 13.6861 56.4203 13.7821C56.8365 13.8622 57.3007 13.9022 57.8129 13.9022C58.005 13.9022 58.2051 13.9022 58.4132 13.9022C58.6373 13.8862 58.8454 13.8621 59.0375 13.8301C59.2456 13.7821 59.4296 13.7181 59.5897 13.6381C59.7658 13.558 59.9019 13.454 59.9979 13.3259C60.0939 13.1818 60.142 13.0058 60.142 12.7977C60.142 12.4935 60.0059 12.2534 59.7338 12.0774C59.4617 11.9013 59.0935 11.7492 58.6293 11.6212C58.1651 11.4931 57.6449 11.373 57.0686 11.261C56.4923 11.1489 55.8921 11.0209 55.2678 10.8768C54.6435 10.7168 54.0433 10.5167 53.467 10.2766C52.8907 10.0365 52.3705 9.73232 51.9063 9.36415C51.4421 8.97998 51.0739 8.50777 50.8018 7.94753C50.5297 7.37127 50.3936 6.68297 50.3936 5.88261C50.3936 4.92218 50.5937 4.10582 50.9939 3.43352C51.3941 2.76123 51.9383 2.21698 52.6266 1.8008C53.3309 1.38461 54.1233 1.08048 55.0037 0.888394C55.9001 0.696309 56.8365 0.600266 57.8129 0.600266C58.8054 0.600266 59.7338 0.704312 60.5982 0.912404C61.4786 1.10449 62.2549 1.40862 62.9272 1.82481C63.5995 2.24099 64.1277 2.76923 64.5119 3.40951C64.8961 4.0498 65.0962 4.81013 65.1122 5.69052V5.97865H60.142V5.88261C60.142 5.59448 60.0699 5.32236 59.9259 5.06625C59.7818 4.81013 59.5497 4.60204 59.2296 4.44197C58.9254 4.2819 58.5172 4.20186 58.005 4.20186C57.5248 4.20186 57.1166 4.24989 56.7805 4.34593C56.4603 4.44197 56.2202 4.57803 56.0601 4.75411C55.9001 4.91418 55.82 5.09026 55.82 5.28234C55.82 5.58648 55.9561 5.83459 56.2282 6.02667C56.5003 6.21876 56.8685 6.37883 57.3327 6.50689C57.7969 6.63494 58.3171 6.755 58.8934 6.86705C59.4697 6.9791 60.0699 7.10715 60.6942 7.25122C61.3185 7.37927 61.9187 7.55535 62.495 7.77945C63.0713 8.00355 63.5915 8.29968 64.0557 8.66785C64.5199 9.02 64.8881 9.4602 65.1602 9.98843C65.4323 10.5167 65.5684 11.165 65.5684 11.9333C65.5684 13.2939 65.2482 14.3984 64.6079 15.2468C63.9837 16.0951 63.1193 16.7194 62.0148 17.1196C60.9263 17.5038 59.6858 17.6959 58.2931 17.6959Z" fill="black"/>
<path d="M74.4206 17.6959C72.98 17.6959 71.7234 17.4557 70.6509 16.9755C69.5945 16.4793 68.7701 15.743 68.1778 14.7666C67.5856 13.7741 67.2894 12.5416 67.2894 11.0689C67.2894 9.58025 67.5856 8.3477 68.1778 7.37127C68.7701 6.37883 69.5945 5.6425 70.6509 5.16229C71.7234 4.66607 72.98 4.41796 74.4206 4.41796C75.381 4.41796 76.2854 4.52201 77.1338 4.7301C77.9822 4.93819 78.7265 5.25833 79.3668 5.69052C80.0071 6.12272 80.5033 6.68296 80.8555 7.37127C81.2236 8.05958 81.4077 8.88394 81.4077 9.84437H76.7736C76.7736 9.34815 76.6776 8.93997 76.4855 8.61982C76.3094 8.29968 76.0453 8.06758 75.6932 7.92352C75.341 7.76344 74.9168 7.68341 74.4206 7.68341C73.8604 7.68341 73.4042 7.79546 73.052 8.01956C72.7158 8.22765 72.4677 8.53979 72.3077 8.95597C72.1476 9.35615 72.0676 9.83636 72.0676 10.3966V11.7652C72.0676 12.3255 72.1476 12.8057 72.3077 13.2059C72.4837 13.606 72.7479 13.9182 73.1 14.1423C73.4682 14.3504 73.9404 14.4544 74.5166 14.4544C75.0449 14.4544 75.4851 14.3824 75.8372 14.2383C76.2054 14.0782 76.4855 13.8381 76.6776 13.518C76.8697 13.1818 76.9657 12.7577 76.9657 12.2454H81.4077C81.4077 13.2059 81.2236 14.0382 80.8555 14.7425C80.5033 15.4308 80.0071 15.9911 79.3668 16.4233C78.7265 16.8555 77.9822 17.1756 77.1338 17.3837C76.2854 17.5918 75.381 17.6959 74.4206 17.6959Z" fill="black"/>
<path d="M87.6263 17.6959C86.97 17.6959 86.3697 17.6318 85.8255 17.5038C85.2812 17.3917 84.809 17.1996 84.4088 16.9275C84.0087 16.6394 83.6965 16.2712 83.4724 15.823C83.2643 15.3588 83.1603 14.7986 83.1603 14.1423C83.1603 13.1979 83.3524 12.4295 83.7365 11.8373C84.1367 11.245 84.713 10.7888 85.4653 10.4686C86.2176 10.1485 87.1301 9.93241 88.2025 9.82036C89.291 9.6923 90.5316 9.62827 91.9242 9.62827V9.00399C91.9242 8.65184 91.8361 8.37171 91.6601 8.16362C91.5 7.93952 91.2839 7.77145 91.0118 7.6594C90.7397 7.54735 90.4275 7.49132 90.0754 7.49132C89.8032 7.49132 89.5231 7.52334 89.235 7.58737C88.9469 7.65139 88.7068 7.76344 88.5147 7.92352C88.3386 8.08359 88.2506 8.30769 88.2506 8.59581V8.69186H83.5445C83.5285 8.62783 83.5205 8.5718 83.5205 8.52378C83.5205 8.47576 83.5205 8.41974 83.5205 8.35571C83.5205 7.57136 83.7686 6.89106 84.2648 6.3148C84.777 5.72254 85.5213 5.26634 86.4978 4.94619C87.4902 4.61005 88.7068 4.44197 90.1474 4.44197C91.3159 4.44197 92.3964 4.57003 93.3888 4.82614C94.3813 5.08225 95.1816 5.51445 95.7899 6.12272C96.3982 6.71498 96.7023 7.53134 96.7023 8.5718V13.518C96.7023 13.7741 96.7663 13.9982 96.8944 14.1903C97.0224 14.3664 97.2145 14.4544 97.4706 14.4544H98.335V17.2156C98.1429 17.3277 97.8228 17.4317 97.3746 17.5278C96.9424 17.6398 96.4302 17.6959 95.8379 17.6959C95.1976 17.6959 94.6374 17.6318 94.1572 17.5038C93.677 17.3757 93.2848 17.1916 92.9806 16.9515C92.6925 16.7114 92.4924 16.4313 92.3804 16.1111H92.2123C91.8762 16.4153 91.484 16.6874 91.0358 16.9275C90.6036 17.1676 90.1074 17.3517 89.5471 17.4798C88.9869 17.6238 88.3466 17.6959 87.6263 17.6959ZM89.5711 14.7185C89.8753 14.7185 90.1634 14.6785 90.4355 14.5985C90.7236 14.5024 90.9798 14.3824 91.2039 14.2383C91.428 14.0782 91.604 13.8942 91.7321 13.6861C91.8602 13.462 91.9242 13.2219 91.9242 12.9658V11.8853C90.9798 11.8853 90.2114 11.9573 89.6192 12.1014C89.0429 12.2454 88.6187 12.4375 88.3466 12.6776C88.0745 12.9177 87.9384 13.1979 87.9384 13.518C87.9384 13.8381 88.0184 14.0863 88.1785 14.2623C88.3386 14.4384 88.5387 14.5585 88.7788 14.6225C89.0349 14.6865 89.299 14.7185 89.5711 14.7185Z" fill="black"/>
<path d="M99.8955 17.4077V0H104.674V17.4077H99.8955Z" fill="black"/>
<path d="M110.924 17.4077L106.122 4.7301H111.261L112.485 8.83592C112.565 9.06002 112.661 9.39617 112.773 9.84437C112.901 10.2926 113.037 10.7648 113.181 11.261C113.342 11.7572 113.478 12.2134 113.59 12.6296H113.758C113.87 12.2454 113.998 11.8132 114.142 11.333C114.286 10.8368 114.422 10.3646 114.55 9.9164C114.678 9.4682 114.782 9.10804 114.862 8.83592L116.087 4.7301H120.793L115.943 17.4077H110.924Z" fill="black"/>
<path d="M128.796 17.6959C127.356 17.6959 126.099 17.4557 125.027 16.9755C123.97 16.4793 123.146 15.743 122.554 14.7666C121.961 13.7741 121.665 12.5416 121.665 11.0689C121.665 9.58025 121.961 8.3477 122.554 7.37127C123.146 6.39484 123.97 5.66651 125.027 5.1863C126.099 4.69008 127.356 4.44197 128.796 4.44197C130.237 4.44197 131.493 4.69008 132.566 5.1863C133.638 5.66651 134.471 6.39484 135.063 7.37127C135.655 8.3477 135.951 9.58025 135.951 11.0689C135.951 12.5416 135.655 13.7741 135.063 14.7666C134.471 15.743 133.638 16.4793 132.566 16.9755C131.493 17.4557 130.237 17.6959 128.796 17.6959ZM128.796 14.4544C129.357 14.4544 129.813 14.3504 130.165 14.1423C130.517 13.9182 130.773 13.606 130.933 13.2059C131.093 12.8057 131.173 12.3255 131.173 11.7652V10.3966C131.173 9.83636 131.093 9.35615 130.933 8.95597C130.773 8.53979 130.517 8.22765 130.165 8.01956C129.813 7.79546 129.357 7.68341 128.796 7.68341C128.236 7.68341 127.78 7.79546 127.428 8.01956C127.092 8.22765 126.843 8.53979 126.683 8.95597C126.523 9.35615 126.443 9.83636 126.443 10.3966V11.7652C126.443 12.3255 126.523 12.8057 126.683 13.2059C126.843 13.606 127.092 13.9182 127.428 14.1423C127.78 14.3504 128.236 14.4544 128.796 14.4544Z" fill="black"/>
<path d="M138.256 17.4077V4.7301H142.17L142.482 6.65095H142.65C142.986 6.15473 143.379 5.74655 143.827 5.42641C144.275 5.09026 144.771 4.84215 145.315 4.68208C145.86 4.52201 146.42 4.44197 146.996 4.44197C148.005 4.44197 148.829 4.63406 149.469 5.01823C150.126 5.38639 150.614 5.92263 150.934 6.62694C151.254 7.33125 151.414 8.18763 151.414 9.19608V17.4077H146.636V9.77234C146.636 9.50022 146.596 9.26011 146.516 9.05202C146.452 8.82792 146.356 8.63583 146.228 8.47576C146.1 8.31569 145.932 8.19564 145.724 8.1156C145.532 8.01956 145.299 7.97154 145.027 7.97154C144.627 7.97154 144.275 8.06758 143.971 8.25966C143.683 8.43574 143.451 8.67585 143.275 8.97998C143.114 9.26811 143.034 9.59626 143.034 9.96442V17.4077H138.256Z" fill="black"/>
<path d="M154.271 3.24144V0H159.049V3.24144H154.271ZM154.271 17.4077V4.7301H159.049V17.4077H154.271Z" fill="black"/>
<path d="M49.2412 44.086L55.7001 27.6147H59.1336L65.6165 44.086H62.7352L61.2705 40.2683H53.4671L52.0024 44.086H49.2412ZM54.3315 37.9873H60.3822L58.5333 33.1612C58.4853 33.0171 58.4133 32.817 58.3172 32.5609C58.2212 32.3048 58.1171 32.0247 58.0051 31.7205C57.9091 31.4164 57.805 31.1123 57.693 30.8081C57.5969 30.488 57.5089 30.1999 57.4288 29.9437H57.2848C57.1887 30.2479 57.0687 30.608 56.9246 31.0242C56.7806 31.4404 56.6365 31.8406 56.4924 32.2248C56.3644 32.6089 56.2523 32.9211 56.1563 33.1612L54.3315 37.9873Z" fill="black"/>
<path d="M67.4008 44.086V31.4564H69.4657L69.6818 33.4973H69.8258C69.9699 33.0971 70.154 32.721 70.3781 32.3688C70.6182 32.0167 70.9223 31.7285 71.2905 31.5044C71.6747 31.2803 72.1389 31.1683 72.6831 31.1683C72.9392 31.1683 73.1633 31.1923 73.3554 31.2403C73.5635 31.2883 73.7236 31.3284 73.8356 31.3604V33.7134H72.9952C72.483 33.7134 72.0268 33.7935 71.6266 33.9535C71.2425 34.1136 70.9143 34.3537 70.6422 34.6738C70.3861 34.978 70.194 35.3541 70.0659 35.8023C69.9539 36.2505 69.8979 36.7548 69.8979 37.315V44.086H67.4008Z" fill="black"/>
<path d="M80.4851 44.3742C79.2205 44.3742 78.164 44.142 77.3157 43.6778C76.4673 43.1976 75.827 42.4693 75.3948 41.4929C74.9786 40.5164 74.7705 39.2759 74.7705 37.7712C74.7705 36.2666 74.9866 35.034 75.4188 34.0736C75.851 33.0971 76.4913 32.3688 77.3397 31.8886C78.2041 31.4084 79.2605 31.1683 80.5091 31.1683C81.3735 31.1683 82.1258 31.2803 82.7661 31.5044C83.4064 31.7125 83.9506 32.0327 84.3988 32.4649C84.847 32.8811 85.1752 33.4013 85.3832 34.0256C85.6073 34.6498 85.7194 35.3622 85.7194 36.1625H83.1983C83.1983 35.4902 83.1022 34.938 82.9101 34.5058C82.7181 34.0736 82.4219 33.7534 82.0218 33.5453C81.6216 33.3212 81.1013 33.2092 80.4611 33.2092C79.7888 33.2092 79.2205 33.3693 78.7563 33.6894C78.2921 33.9935 77.9399 34.4658 77.6998 35.106C77.4597 35.7303 77.3397 36.5547 77.3397 37.5791V37.9873C77.3397 38.9637 77.4517 39.7801 77.6758 40.4364C77.9159 41.0767 78.2681 41.5569 78.7323 41.877C79.2125 42.1812 79.8208 42.3332 80.5571 42.3332C81.1974 42.3332 81.7096 42.2212 82.0938 41.9971C82.494 41.757 82.7901 41.4208 82.9822 40.9886C83.1903 40.5404 83.2943 40.0042 83.2943 39.3799H85.7194C85.7194 40.1323 85.6073 40.8126 85.3832 41.4208C85.1752 42.0291 84.847 42.5573 84.3988 43.0055C83.9666 43.4377 83.4224 43.7739 82.7661 44.014C82.1098 44.2541 81.3495 44.3742 80.4851 44.3742Z" fill="black"/>
<path d="M88.246 44.086V26.7263H90.7431V32.9691H90.9111C91.2153 32.5849 91.5594 32.2648 91.9436 32.0087C92.3278 31.7365 92.76 31.5284 93.2402 31.3844C93.7204 31.2403 94.2486 31.1683 94.8249 31.1683C95.6252 31.1683 96.3295 31.3124 96.9378 31.6005C97.5461 31.8726 98.0183 32.3208 98.3544 32.9451C98.7066 33.5694 98.8827 34.4097 98.8827 35.4662V44.086H96.3856V35.8504C96.3856 35.3702 96.3215 34.97 96.1935 34.6498C96.0814 34.3297 95.9134 34.0736 95.6893 33.8815C95.4652 33.6894 95.201 33.5533 94.8969 33.4733C94.5928 33.3933 94.2566 33.3533 93.8885 33.3533C93.3122 33.3533 92.784 33.4893 92.3038 33.7614C91.8395 34.0336 91.4634 34.4177 91.1753 34.914C90.8871 35.4102 90.7431 36.0024 90.7431 36.6907V44.086H88.246Z" fill="black"/>
<path d="M102.01 29.2714V26.7263H104.507V29.2714H102.01ZM102.01 44.086V31.4564H104.507V44.086H102.01Z" fill="black"/>
<path d="M110.877 44.3742C110.156 44.3742 109.588 44.2381 109.172 43.966C108.772 43.6778 108.483 43.3177 108.307 42.8855C108.147 42.4373 108.067 41.9651 108.067 41.4689V33.5213H106.483V31.4564H108.115L108.572 27.9269H110.564V31.4564H112.845V33.5213H110.564V41.1807C110.564 41.5489 110.644 41.829 110.805 42.0211C110.965 42.2132 111.229 42.3092 111.597 42.3092H112.845V43.99C112.685 44.054 112.485 44.11 112.245 44.1581C112.021 44.2221 111.789 44.2701 111.549 44.3021C111.309 44.3501 111.085 44.3742 110.877 44.3742Z" fill="black"/>
<path d="M120.281 44.3742C118.985 44.3742 117.896 44.142 117.016 43.6778C116.151 43.1976 115.495 42.4693 115.047 41.4929C114.599 40.5164 114.375 39.2759 114.375 37.7712C114.375 36.2505 114.599 35.01 115.047 34.0496C115.495 33.0731 116.159 32.3528 117.04 31.8886C117.92 31.4084 119.017 31.1683 120.329 31.1683C121.53 31.1683 122.53 31.4004 123.331 31.8646C124.147 32.3128 124.763 33.0011 125.179 33.9295C125.596 34.8579 125.804 36.0264 125.804 37.4351V38.3955H116.944C116.976 39.2919 117.112 40.0442 117.352 40.6525C117.592 41.2448 117.952 41.685 118.432 41.9731C118.929 42.2452 119.553 42.3813 120.305 42.3813C120.769 42.3813 121.186 42.3252 121.554 42.2132C121.922 42.0851 122.234 41.9091 122.49 41.685C122.746 41.4449 122.946 41.1647 123.09 40.8446C123.235 40.5084 123.307 40.1323 123.307 39.7161H125.756C125.756 40.4684 125.628 41.1327 125.371 41.709C125.115 42.2852 124.739 42.7734 124.243 43.1736C123.763 43.5578 123.187 43.8539 122.514 44.062C121.842 44.2701 121.098 44.3742 120.281 44.3742ZM116.992 36.5707H123.187C123.187 35.9464 123.114 35.4262 122.97 35.01C122.842 34.5778 122.65 34.2256 122.394 33.9535C122.138 33.6814 121.834 33.4893 121.482 33.3773C121.13 33.2492 120.729 33.1852 120.281 33.1852C119.609 33.1852 119.033 33.3052 118.552 33.5453C118.088 33.7855 117.728 34.1616 117.472 34.6738C117.216 35.1701 117.056 35.8023 116.992 36.5707Z" fill="black"/>
<path d="M133.36 44.3742C132.096 44.3742 131.039 44.142 130.191 43.6778C129.342 43.1976 128.702 42.4693 128.27 41.4929C127.854 40.5164 127.646 39.2759 127.646 37.7712C127.646 36.2666 127.862 35.034 128.294 34.0736C128.726 33.0971 129.366 32.3688 130.215 31.8886C131.079 31.4084 132.136 31.1683 133.384 31.1683C134.248 31.1683 135.001 31.2803 135.641 31.5044C136.281 31.7125 136.826 32.0327 137.274 32.4649C137.722 32.8811 138.05 33.4013 138.258 34.0256C138.482 34.6498 138.594 35.3622 138.594 36.1625H136.073C136.073 35.4902 135.977 34.938 135.785 34.5058C135.593 34.0736 135.297 33.7534 134.897 33.5453C134.497 33.3212 133.976 33.2092 133.336 33.2092C132.664 33.2092 132.096 33.3693 131.631 33.6894C131.167 33.9935 130.815 34.4658 130.575 35.106C130.335 35.7303 130.215 36.5547 130.215 37.5791V37.9873C130.215 38.9637 130.327 39.7801 130.551 40.4364C130.791 41.0767 131.143 41.5569 131.607 41.877C132.088 42.1812 132.696 42.3332 133.432 42.3332C134.072 42.3332 134.585 42.2212 134.969 41.9971C135.369 41.757 135.665 41.4208 135.857 40.9886C136.065 40.5404 136.169 40.0042 136.169 39.3799H138.594C138.594 40.1323 138.482 40.8126 138.258 41.4208C138.05 42.0291 137.722 42.5573 137.274 43.0055C136.842 43.4377 136.297 43.7739 135.641 44.014C134.985 44.2541 134.224 44.3742 133.36 44.3742Z" fill="black"/>
<path d="M144.266 44.3742C143.546 44.3742 142.978 44.2381 142.562 43.966C142.161 43.6778 141.873 43.3177 141.697 42.8855C141.537 42.4373 141.457 41.9651 141.457 41.4689V33.5213H139.872V31.4564H141.505L141.961 27.9269H143.954V31.4564H146.235V33.5213H143.954V41.1807C143.954 41.5489 144.034 41.829 144.194 42.0211C144.354 42.2132 144.619 42.3092 144.987 42.3092H146.235V43.99C146.075 44.054 145.875 44.11 145.635 44.1581C145.411 44.2221 145.179 44.2701 144.939 44.3021C144.699 44.3501 144.474 44.3742 144.266 44.3742Z" fill="black"/>
<path d="M152.398 44.3742C151.182 44.3742 150.197 44.054 149.445 43.4137C148.693 42.7574 148.317 41.6449 148.317 40.0762V31.4564H150.814V39.6921C150.814 40.1723 150.87 40.5725 150.982 40.8926C151.11 41.2127 151.286 41.4689 151.51 41.6609C151.734 41.853 151.998 41.9891 152.302 42.0691C152.607 42.1492 152.943 42.1892 153.311 42.1892C153.887 42.1892 154.407 42.0531 154.872 41.781C155.352 41.4929 155.736 41.1007 156.024 40.6045C156.312 40.0922 156.456 39.508 156.456 38.8517V31.4564H158.953V44.086H156.912L156.696 42.2852H156.528C156.224 42.7494 155.864 43.1336 155.448 43.4377C155.032 43.7419 154.567 43.974 154.055 44.134C153.559 44.2941 153.007 44.3742 152.398 44.3742Z" fill="black"/>
<path d="M162.177 44.086V31.4564H164.242L164.458 33.4973H164.602C164.746 33.0971 164.93 32.721 165.155 32.3688C165.395 32.0167 165.699 31.7285 166.067 31.5044C166.451 31.2803 166.915 31.1683 167.46 31.1683C167.716 31.1683 167.94 31.1923 168.132 31.2403C168.34 31.2883 168.5 31.3284 168.612 31.3604V33.7134H167.772C167.259 33.7134 166.803 33.7935 166.403 33.9535C166.019 34.1136 165.691 34.3537 165.419 34.6738C165.163 34.978 164.97 35.3541 164.842 35.8023C164.73 36.2505 164.674 36.7548 164.674 37.315V44.086H162.177Z" fill="black"/>
<path d="M175.478 44.3742C174.181 44.3742 173.093 44.142 172.212 43.6778C171.348 43.1976 170.691 42.4693 170.243 41.4929C169.795 40.5164 169.571 39.2759 169.571 37.7712C169.571 36.2505 169.795 35.01 170.243 34.0496C170.691 33.0731 171.356 32.3528 172.236 31.8886C173.117 31.4084 174.213 31.1683 175.526 31.1683C176.726 31.1683 177.727 31.4004 178.527 31.8646C179.343 32.3128 179.96 33.0011 180.376 33.9295C180.792 34.8579 181 36.0264 181 37.4351V38.3955H172.14C172.172 39.2919 172.308 40.0442 172.548 40.6525C172.788 41.2448 173.149 41.685 173.629 41.9731C174.125 42.2452 174.749 42.3813 175.502 42.3813C175.966 42.3813 176.382 42.3252 176.75 42.2132C177.118 42.0851 177.43 41.9091 177.687 41.685C177.943 41.4449 178.143 41.1647 178.287 40.8446C178.431 40.5084 178.503 40.1323 178.503 39.7161H180.952C180.952 40.4684 180.824 41.1327 180.568 41.709C180.312 42.2852 179.936 42.7734 179.439 43.1736C178.959 43.5578 178.383 43.8539 177.711 44.062C177.038 44.2701 176.294 44.3742 175.478 44.3742ZM172.188 36.5707H178.383C178.383 35.9464 178.311 35.4262 178.167 35.01C178.039 34.5778 177.847 34.2256 177.591 33.9535C177.334 33.6814 177.03 33.4893 176.678 33.3773C176.326 33.2492 175.926 33.1852 175.478 33.1852C174.805 33.1852 174.229 33.3052 173.749 33.5453C173.285 33.7855 172.924 34.1616 172.668 34.6738C172.412 35.1701 172.252 35.8023 172.188 36.5707Z" fill="black"/>
</svg>
