<svg width="95" height="94" viewBox="0 0 95 94" fill="none" xmlns="http://www.w3.org/2000/svg">
<circle cx="47.3333" cy="47" r="47" fill="#2387C0" fill-opacity="0.3"/>
<circle cx="47.3333" cy="47" r="37" fill="#2387C0"/>
<path d="M67.9385 42.7031H56.9385C56.7495 42.7031 56.5948 42.8578 56.5948 43.0469V45.1094C56.5948 45.2984 56.7495 45.4531 56.9385 45.4531H67.9385C68.1276 45.4531 68.2823 45.2984 68.2823 45.1094V43.0469C68.2823 42.8578 68.1276 42.7031 67.9385 42.7031ZM62.1807 48.5469H56.9385C56.7495 48.5469 56.5948 48.7016 56.5948 48.8906V50.9531C56.5948 51.1422 56.7495 51.2969 56.9385 51.2969H62.1807C62.3698 51.2969 62.5245 51.1422 62.5245 50.9531V48.8906C62.5245 48.7016 62.3698 48.5469 62.1807 48.5469ZM47.842 38.8574H45.9815C45.7151 38.8574 45.5002 39.0723 45.5002 39.3387V49.9949C45.5002 50.1496 45.5733 50.2914 45.6979 50.3816L52.0959 55.048C52.3108 55.2027 52.6116 55.1598 52.7663 54.9449L53.8706 53.4367V53.4324C54.0252 53.2176 53.978 52.9168 53.7631 52.7621L48.319 48.8262V39.3387C48.3233 39.0723 48.1042 38.8574 47.842 38.8574Z" fill="white"/>
<path d="M61.9145 53.9566H59.4309C59.1903 53.9566 58.9626 54.0812 58.8337 54.2874C58.288 55.1511 57.652 55.9503 56.9216 56.6808C55.6626 57.9398 54.1973 58.9281 52.5688 59.6156C50.8802 60.3288 49.0884 60.6898 47.2407 60.6898C45.3887 60.6898 43.597 60.3288 41.9126 59.6156C40.2841 58.9281 38.8188 57.9398 37.5598 56.6808C36.3009 55.4218 35.3126 53.9566 34.6251 52.3281C33.9118 50.6437 33.5509 48.8519 33.5509 46.9999C33.5509 45.148 33.9118 43.3605 34.6251 41.6718C35.3126 40.0433 36.3009 38.5781 37.5598 37.3191C38.8188 36.0601 40.2841 35.0718 41.9126 34.3843C43.597 33.671 45.393 33.3101 47.2407 33.3101C49.0927 33.3101 50.8845 33.671 52.5688 34.3843C54.1973 35.0718 55.6626 36.0601 56.9216 37.3191C57.652 38.0496 58.288 38.8488 58.8337 39.7124C58.9626 39.9187 59.1903 40.0433 59.4309 40.0433H61.9145C62.211 40.0433 62.4001 39.7339 62.2669 39.4718C59.4653 33.8988 53.7848 30.2765 47.4427 30.2035C38.1571 30.0874 30.4442 37.6886 30.427 46.9656C30.4098 56.2597 37.9423 63.8007 47.2364 63.8007C53.6602 63.8007 59.4352 60.1656 62.2669 54.5281C62.4001 54.266 62.2067 53.9566 61.9145 53.9566Z" fill="white"/>
</svg>
